DataType=double
version=3
OpenSimVersion=4.3-2021-07-13-51ee73d
endheader
time	ground_force_r_vx	ground_force_r_vy	ground_force_r_vz	ground_force_r_px	ground_force_r_py	ground_force_r_pz	ground_force_l_vx	ground_force_l_vy	ground_force_l_vz	ground_force_l_px	ground_force_l_py	ground_force_l_pz	ground_torque_r_x	ground_torque_r_y	ground_torque_r_z	ground_torque_l_x	ground_torque_l_y	ground_torque_l_z
2.224	-1.435358905843549e-07	8.738663401496535e-08	0	0	0	0	0	0	0	0	0	0	0	0	-2.59955988303721e-09	0	0	0
2.227509652182279	-1.719379373978138e-06	9.569022515667329e-07	0	0	0	0	0	0	0	0	0	0	0	0	-2.930697758546213e-08	0	0	0
2.231019304364557	-1.865108976303956e-05	1.084113742476569e-05	0	0	0	0	0	0	0	0	0	0	0	0	-2.697026882065665e-07	0	0	0
2.234528956546836	-0.0002025776368621131	0.0001310089969468696	0	0	0	0	0	0	0	0	0	0	0	0	-2.224970192560963e-06	0	0	0
2.238038608729115	-0.002297244154464934	0.001636372235069086	0	0	0	0	0	0	0	0	0	0	0	0	-1.700561413232027e-05	0	0	0
2.241548260911394	-0.02593873369307919	0.02026338836629661	0	0	0	0	0	0	0	0	0	0	0	0	-9.499623124561152e-05	0	0	0
2.245057913093672	-0.270584227657807	0.2329036032216208	0	0	0	0	0	0	0	0	0	0	0	0	0.0001018172376257812	0	0	0
2.248567565275951	-2.405121898781823	2.272975683821077	0	0	0	0	0	0	0	0	0	0	0	0	0.01097669084707574	0	0	0
2.25207721745823	-15.74847482289144	16.30402344156606	0	0	0	0	0	0	0	0	0	0	0	0	0.1401098831219969	0	0	0
2.255586869640509	-58.13517574020384	63.96512654686834	0	0	0	0	0	0	0	0	0	0	0	0	0.7337048786506283	0	0	0
2.259096521822787	-165.3193161544128	195.0105809237626	0	0	0	0	0	0	0	0	0	0	0	0	2.760798125438132	0	0	0
2.262606174005066	-70.92531850310363	485.1904000637949	0	0	0	0	0	0	0	0	0	0	0	0	11.66381883033772	0	0	0
2.266115826187345	-36.09005699577294	715.3628730701064	0	0	0	0	0	0	0	0	0	0	0	0	20.6692566307205	0	0	0
2.269625478369623	-23.35139789977025	805.1074484277854	0	0	0	0	0	0	0	0	0	0	0	0	29.14147371439222	0	0	0
2.273135130551902	-83.24250826938125	898.0301747243194	0	0	0	0	0	0	0	0	0	0	0	0	47.47551402590779	0	0	0
2.276644782734181	-69.63119740578858	964.3198069928922	0	0	0	0	0	0	0	0	0	0	0	0	66.6580487163674	0	0	0
2.280154434916459	-83.79448121891797	1014.101745839213	0	0	0	0	0	0	0	0	0	0	0	0	87.92875781576024	0	0	0
2.283664087098738	-120.4443627786129	1032.594037916494	0	0	0	0	0	0	0	0	0	0	0	0	100.9451398493811	0	0	0
2.287173739281017	-124.2884465980619	1050.037829371765	0	0	0	0	0	0	0	0	0	0	0	0	108.4545677335047	0	0	0
2.290683391463296	-163.137763270285	1085.897020196617	0	0	0	0	0	0	0	0	0	0	0	0	114.3653146887802	0	0	0
2.294193043645574	-180.7030205764255	1104.046563991899	0	0	0	0	0	0	0	0	0	0	0	0	115.060033639393	0	0	0
2.297702695827853	-194.6464054368166	1155.733880156404	0	0	0	0	0	0	0	0	0	0	0	0	120.072013083869	0	0	0
2.301212348010132	-212.9806048696072	1205.400314736359	0	0	0	0	0	0	0	0	0	0	0	0	124.3392567477741	0	0	0
2.30472200019241	-208.2959558663958	1271.58864146165	0	0	0	0	0	0	0	0	0	0	0	0	131.5487661389052	0	0	0
2.308231652374689	-214.3009268354929	1341.821192247083	0	0	0	0	0	0	0	0	0	0	0	0	139.400867174261	0	0	0
2.311741304556968	-198.4459750087248	1416.173906482798	0	0	0	0	0	0	0	0	0	0	0	0	148.710699643733	0	0	0
2.315250956739247	-195.2422223971989	1491.891913224803	0	0	0	0	0	0	0	0	0	0	0	0	158.781196423429	0	0	0
2.318760608921525	-173.1725658536533	1560.316428491381	0	0	0	0	0	0	0	0	0	0	0	0	168.8153097693478	0	0	0
2.322270261103804	-163.1113847525489	1626.005020735279	0	0	0	0	0	0	0	0	0	0	0	0	179.2161683588513	0	0	0
2.325779913286083	-139.2868176325415	1678.927241897824	0	0	0	0	0	0	0	0	0	0	0	0	188.7510793701811	0	0	0
2.329289565468361	-126.2927093195468	1726.010544512305	0	0	0	0	0	0	0	0	0	0	0	0	198.2199575121801	0	0	0
2.33279921765064	-103.479073249464	1760.200996419392	0	0	0	0	0	0	0	0	0	0	0	0	206.7954432186197	0	0	0
2.336308869832919	-91.23021825186879	1786.599274898129	0	0	0	0	0	0	0	0	0	0	0	0	215.0529515691305	0	0	0
2.339818522015197	-69.96304420053063	1803.294051162883	0	0	0	0	0	0	0	0	0	0	0	0	222.9364254324392	0	0	0
2.343328174197476	-59.63515054061946	1811.995321270543	0	0	0	0	0	0	0	0	0	0	0	0	230.4800030847815	0	0	0
2.346837826379755	-38.38888152185865	1814.625709266957	0	0	0	0	0	0	0	0	0	0	0	0	238.5029782569999	0	0	0
2.350347478562034	-30.29412894436008	1808.472758694637	0	0	0	0	0	0	0	0	0	0	0	0	246.339695531695	0	0	0
2.353857130744312	-7.091443544891577	1800.129929888679	0	0	0	0	0	0	0	0	0	0	0	0	255.5642131342936	0	0	0
2.357366782926591	1.187073357022687	1784.040201590871	0	0	0	0	0	0	0	0	0	0	0	0	264.8997375179201	0	0	0
2.36087643510887	19.33375895257349	1759.841973752033	0	0	0	0	0	0	0	0	0	0	0	0	273.0714660550879	0	0	0
2.364386087291149	32.59139085533096	1738.081150556778	0	0	0	0	0	0	0	0	0	0	0	0	281.1946777406209	0	0	0
2.367895739473427	47.69998652756878	1700.235516065384	0	0	0	0	0	0	0	0	0	0	0	0	286.0614823550023	0	0	0
2.371405391655706	62.32771904196315	1661.939142833912	0	0	0	0	0	0	0	0	0	0	0	0	290.2031707422751	0	0	0
2.374915043837984	71.1052456482949	1613.248536022394	0	0	0	0	0	0	0	0	0	0	0	0	289.5244684936857	0	0	0
2.378424696020263	89.11151217836627	1574.651441771022	0	0	0	0	0	0	0	0	0	0	0	0	287.8156942013738	0	0	0
2.381934348202542	103.2871660322317	1518.212338745415	0	0	0	0	0	0	0	0	0	0	0	0	283.558607813066	0	0	0
2.385444000384821	113.2281621700974	1458.451797761601	0	0	0	0	0	0	0	0	0	0	0	0	278.0162363173387	0	0	0
2.388953652567099	132.7602673435749	1395.193126819355	0	0	0	0	0	0	0	0	0	0	0	0	271.7419683899249	0	0	0
2.392463304749378	149.7496197740277	1325.27352998463	0	0	0	0	0	0	0	0	0	0	0	0	263.9651471179772	0	0	0
2.395972956931657	161.3110328607116	1250.050425053685	0	0	0	0	0	0	0	0	0	0	0	0	251.7597634515487	0	0	0
2.399482609113936	181.992195046879	1171.98836784225	0	0	0	0	0	0	0	0	0	0	0	0	237.1834555360042	0	0	0
2.402992261296214	198.4903447363573	1092.766817908508	0	0	0	0	0	0	0	0	0	0	0	0	222.4272724653329	0	0	0
2.406501913478493	207.7835102424401	1005.555006682866	0	0	0	0	0	0	0	0	0	0	0	0	205.9122636025747	0	0	0
2.410011565660771	219.4600174056479	924.5967435839965	0	0	0	0	0	0	0	0	0	0	0	0	190.8956839078843	0	0	0
2.413521217843051	222.8732369267524	838.0783926830873	0	0	0	0	0	0	0	0	0	0	0	0	174.4837493698358	0	0	0
2.417030870025329	224.3387427284028	757.7549470169745	0	0	0	0	0	0	0	0	0	0	0	0	159.273064756612	0	0	0
2.420540522207608	216.4836234986383	674.5288274329625	0	0	0	0	0	0	0	0	0	0	0	0	142.9645902524718	0	0	0
2.424050174389886	210.4869271880042	597.2735477040906	0	0	0	0	0	0	0	0	0	0	0	0	128.0240992168067	0	0	0
2.427559826572165	196.1432883485193	518.2654591654782	0	0	0	0	0	0	0	0	0	0	0	0	112.1612559132809	0	0	0
2.431069478754444	184.0332028986598	447.567446533606	0	0	0	0	0	0	0	0	0	0	0	0	98.11204322523281	0	0	0
2.434579130936723	164.1673996542662	377.0699771894969	0	0	0	0	0	0	0	0	0	0	0	0	83.42691208747624	0	0	0
2.438088783119001	154.3556119502599	312.0170235160644	0	0	0	0	0	0	0	0	0	0	0	0	70.90853230322492	0	0	0
2.44159843530128	140.8850812033937	244.843235223163	0	0	0	0	0	0	0	0	0	0	0	0	57.86871679449195	0	0	0
2.445108087483559	106.4885915786022	195.1210048674144	0	0	0	0	0	0	0	0	0	0	0	0	45.27834981975809	0	0	0
2.448617739665838	57.7486499094196	160.6602243523801	0	0	0	0	0	0	0	0	0	0	0	0	33.00589870637693	0	0	0
2.452127391848116	10.89503602695531	76.88405787827699	0	0	0	0	0	0	0	0	0	0	0	0	13.1385528095406	0	0	0
2.455637044030395	5.219831067978243e-05	-5.655836753986535e-05	0	0	0	0	0	0	0	0	0	0	0	0	-2.56867999265824e-07	0	0	0
2.459146696212673	0	0	0	0	0	0	0	0	0	0	0	0	0	0	0	0	0	0
2.462656348394952	0	0	0	0	0	0	0	0	0	0	0	0	0	0	0	0	0	0
2.466166000577231	0	0	0	0	0	0	0	0	0	0	0	0	0	0	0	0	0	0
2.46967565275951	0	0	0	0	0	0	0	0	0	0	0	0	0	0	0	0	0	0
2.473185304941788	0	0	0	0	0	0	0	0	0	0	0	0	0	0	0	0	0	0
2.476694957124067	0	0	0	0	0	0	0	0	0	0	0	0	0	0	0	0	0	0
2.480204609306346	0	0	0	0	0	0	0	0	0	0	0	0	0	0	0	0	0	0
2.483714261488625	0	0	0	0	0	0	0	0	0	0	0	0	0	0	0	0	0	0
2.487223913670903	0	0	0	0	0	0	0	0	0	0	0	0	0	0	0	0	0	0
2.490733565853182	0	0	0	0	0	0	0	0	0	0	0	0	0	0	0	0	0	0
2.494243218035461	0	0	0	0	0	0	0	0	0	0	0	0	0	0	0	0	0	0
2.497752870217739	0	0	0	0	0	0	0	0	0	0	0	0	0	0	0	0	0	0
2.501262522400018	0	0	0	0	0	0	0	0	0	0	0	0	0	0	0	0	0	0
2.504772174582297	0	0	0	0	0	0	0	0	0	0	0	0	0	0	0	0	0	0
2.508281826764575	0	0	0	0	0	0	0	0	0	0	0	0	0	0	0	0	0	0
2.511791478946854	0	0	0	0	0	0	0	0	0	0	0	0	0	0	0	0	0	0
2.515301131129133	0	0	0	0	0	0	0	0	0	0	0	0	0	0	0	0	0	0
2.518810783311412	0	0	0	0	0	0	0	0	0	0	0	0	0	0	0	0	0	0
2.52232043549369	0	0	0	0	0	0	0	0	0	0	0	0	0	0	0	0	0	0
